<svg width="88" height="44" viewBox="0 0 88 44" fill="none" xmlns="http://www.w3.org/2000/svg">
  <path d="M85.9821 1.2627H1.3667V41.8781H85.9821V1.2627Z" fill="#FFB4BF" stroke="#A03D4C"/>
  <path fill-rule="evenodd" clip-rule="evenodd" d="M52.9824 12.2627H32.6747V12.9985H52.9824V12.2627ZM30.9824 10.5704V14.6908H54.6747V10.5704H30.9824Z" fill="#294E95"/>
  <path fill-rule="evenodd" clip-rule="evenodd" d="M52.9824 12.2627H32.6747V12.9985H52.9824V12.2627ZM30.9824 10.5704V14.6908H54.6747V10.5704H30.9824Z" fill="#294E95"/>
  <path fill-rule="evenodd" clip-rule="evenodd" d="M52.9824 12.2627H32.6747V12.9985H52.9824V12.2627ZM30.9824 10.5704V14.6908H54.6747V10.5704H30.9824Z" fill="#294E95"/>
  <path fill-rule="evenodd" clip-rule="evenodd" d="M52.9824 12.2627H32.6747V12.9985H52.9824V12.2627ZM30.9824 10.5704V14.6908H54.6747V10.5704H30.9824Z" fill="#A03D4C"/>
  <path fill-rule="evenodd" clip-rule="evenodd" d="M52.9824 27.7142H32.6747V32.5705H52.9824V27.7142ZM30.9824 26.0219V34.2628H54.6747V26.0219H30.9824Z" fill="#294E95"/>
  <path fill-rule="evenodd" clip-rule="evenodd" d="M52.9824 27.7142H32.6747V32.5705H52.9824V27.7142ZM30.9824 26.0219V34.2628H54.6747V26.0219H30.9824Z" fill="#294E95"/>
  <path fill-rule="evenodd" clip-rule="evenodd" d="M52.9824 27.7142H32.6747V32.5705H52.9824V27.7142ZM30.9824 26.0219V34.2628H54.6747V26.0219H30.9824Z" fill="#294E95"/>
  <path fill-rule="evenodd" clip-rule="evenodd" d="M52.9824 27.7142H32.6747V32.5705H52.9824V27.7142ZM30.9824 26.0219V34.2628H54.6747V26.0219H30.9824Z" fill="#A03D4C"/>
  <path fill-rule="evenodd" clip-rule="evenodd" d="M33.042 26.2279V14.6909H35.1022V27.0521H33.4451V26.2279H33.042Z" fill="#294E95"/>
  <path fill-rule="evenodd" clip-rule="evenodd" d="M33.042 26.2279V14.6909H35.1022V27.0521H33.4451V26.2279H33.042Z" fill="#294E95"/>
  <path fill-rule="evenodd" clip-rule="evenodd" d="M33.042 26.2279V14.6909H35.1022V27.0521H33.4451V26.2279H33.042Z" fill="#294E95"/>
  <path fill-rule="evenodd" clip-rule="evenodd" d="M33.042 26.2279V14.6909H35.1022V27.0521H33.4451V26.2279H33.042Z" fill="#A03D4C"/>
  <path fill-rule="evenodd" clip-rule="evenodd" d="M50.5542 26.2279V14.6909H52.6144V27.0521H50.9573V26.2279H50.5542Z" fill="#294E95"/>
  <path fill-rule="evenodd" clip-rule="evenodd" d="M50.5542 26.2279V14.6909H52.6144V27.0521H50.9573V26.2279H50.5542Z" fill="#294E95"/>
  <path fill-rule="evenodd" clip-rule="evenodd" d="M50.5542 26.2279V14.6909H52.6144V27.0521H50.9573V26.2279H50.5542Z" fill="#294E95"/>
  <path fill-rule="evenodd" clip-rule="evenodd" d="M50.5542 26.2279V14.6909H52.6144V27.0521H50.9573V26.2279H50.5542Z" fill="#A03D4C"/>
  <path fill-rule="evenodd" clip-rule="evenodd" d="M42.8283 19.1791C43.3158 19.1791 43.7112 18.7838 43.7112 18.2962C43.7112 17.8085 43.3158 17.4132 42.8283 17.4132C42.3406 17.4132 41.9452 17.8085 41.9452 18.2962C41.9452 18.7838 42.3406 19.1791 42.8283 19.1791ZM42.8283 20.8714C44.2505 20.8714 45.4035 19.7184 45.4035 18.2962C45.4035 16.8739 44.2505 15.7209 42.8283 15.7209C41.4059 15.7209 40.2529 16.8739 40.2529 18.2962C40.2529 19.7184 41.4059 20.8714 42.8283 20.8714Z" fill="#294E95"/>
  <path fill-rule="evenodd" clip-rule="evenodd" d="M42.8283 19.1791C43.3158 19.1791 43.7112 18.7838 43.7112 18.2962C43.7112 17.8085 43.3158 17.4132 42.8283 17.4132C42.3406 17.4132 41.9452 17.8085 41.9452 18.2962C41.9452 18.7838 42.3406 19.1791 42.8283 19.1791ZM42.8283 20.8714C44.2505 20.8714 45.4035 19.7184 45.4035 18.2962C45.4035 16.8739 44.2505 15.7209 42.8283 15.7209C41.4059 15.7209 40.2529 16.8739 40.2529 18.2962C40.2529 19.7184 41.4059 20.8714 42.8283 20.8714Z" fill="#294E95"/>
  <path fill-rule="evenodd" clip-rule="evenodd" d="M42.8283 19.1791C43.3158 19.1791 43.7112 18.7838 43.7112 18.2962C43.7112 17.8085 43.3158 17.4132 42.8283 17.4132C42.3406 17.4132 41.9452 17.8085 41.9452 18.2962C41.9452 18.7838 42.3406 19.1791 42.8283 19.1791ZM42.8283 20.8714C44.2505 20.8714 45.4035 19.7184 45.4035 18.2962C45.4035 16.8739 44.2505 15.7209 42.8283 15.7209C41.4059 15.7209 40.2529 16.8739 40.2529 18.2962C40.2529 19.7184 41.4059 20.8714 42.8283 20.8714Z" fill="#294E95"/>
  <path fill-rule="evenodd" clip-rule="evenodd" d="M42.8283 19.1791C43.3158 19.1791 43.7112 18.7838 43.7112 18.2962C43.7112 17.8085 43.3158 17.4132 42.8283 17.4132C42.3406 17.4132 41.9452 17.8085 41.9452 18.2962C41.9452 18.7838 42.3406 19.1791 42.8283 19.1791ZM42.8283 20.8714C44.2505 20.8714 45.4035 19.7184 45.4035 18.2962C45.4035 16.8739 44.2505 15.7209 42.8283 15.7209C41.4059 15.7209 40.2529 16.8739 40.2529 18.2962C40.2529 19.7184 41.4059 20.8714 42.8283 20.8714Z" fill="#A03D4C"/>
  <path fill-rule="evenodd" clip-rule="evenodd" d="M42.8279 21.7154C40.091 21.7154 37.8724 24.1046 37.8724 27.0521H36.1323C36.1323 23.0697 39.1299 19.8413 42.8279 19.8413C46.5258 19.8413 49.5236 23.0697 49.5236 27.0521H47.7834C47.7834 24.1046 45.5647 21.7154 42.8279 21.7154Z" fill="#294E95"/>
  <path fill-rule="evenodd" clip-rule="evenodd" d="M42.8279 21.7154C40.091 21.7154 37.8724 24.1046 37.8724 27.0521H36.1323C36.1323 23.0697 39.1299 19.8413 42.8279 19.8413C46.5258 19.8413 49.5236 23.0697 49.5236 27.0521H47.7834C47.7834 24.1046 45.5647 21.7154 42.8279 21.7154Z" fill="#294E95"/>
  <path fill-rule="evenodd" clip-rule="evenodd" d="M42.8279 21.7154C40.091 21.7154 37.8724 24.1046 37.8724 27.0521H36.1323C36.1323 23.0697 39.1299 19.8413 42.8279 19.8413C46.5258 19.8413 49.5236 23.0697 49.5236 27.0521H47.7834C47.7834 24.1046 45.5647 21.7154 42.8279 21.7154Z" fill="#294E95"/>
  <path fill-rule="evenodd" clip-rule="evenodd" d="M42.8279 21.7154C40.091 21.7154 37.8724 24.1046 37.8724 27.0521H36.1323C36.1323 23.0697 39.1299 19.8413 42.8279 19.8413C46.5258 19.8413 49.5236 23.0697 49.5236 27.0521H47.7834C47.7834 24.1046 45.5647 21.7154 42.8279 21.7154Z" fill="#A03D4C"/>
</svg>
  