<svg width="52" height="47" viewBox="0 0 52 47" fill="none" xmlns="http://www.w3.org/2000/svg">
  <path d="M22.0533 11.8654C22.2918 12.4853 22.5041 13.197 22.676 13.9854L17.7295 18.8923C17.7255 18.7251 17.7236 18.557 17.7236 18.3882C17.7236 15.8129 18.1656 13.5242 18.7997 11.8658C19.3228 11.9928 19.8671 12.0591 20.4257 12.0591C20.9848 12.0591 21.5296 11.9926 22.0533 11.8654ZM7.85172 36.0207C8.33379 36.0207 8.79634 35.8302 9.13856 35.4907L38.3314 6.52955H51.0001V15.5472H44.1521C43.67 15.5472 43.2076 15.7377 42.8654 16.0772L13.669 45.0384H1.00012V36.0207H7.85172ZM18.6526 3.66557C18.6526 1.75276 19.8466 0.999944 20.4257 0.999944C21.0047 0.999944 22.1988 1.75276 22.1988 3.66557C22.1988 5.58167 21.0058 6.33121 20.4257 6.33121C19.8455 6.33121 18.6526 5.58167 18.6526 3.66557Z" stroke="#767676" stroke-width="2" stroke-linejoin="round"/>
</svg>
  