<svg width="50" height="38" viewBox="0 0 50 38" fill="none" xmlns="http://www.w3.org/2000/svg">
  <path d="M1.0537 0.259816C0.750579 0.490759 0.707276 0.765016 0.375289 4.11374C0.0288691 7.679 0.0288691 7.7223 0.303119 8.02543C0.577369 8.32854 0.577369 8.32854 0.288685 8.6894C0 9.06469 0 9.2379 0 22.907V36.7639L0.331986 37.067C0.663973 37.3846 0.678408 37.3846 7.89551 37.3846H15.1415L15.4302 37.0093C15.7189 36.634 15.7333 36.4608 15.7333 31.2645L15.7477 25.9095L19.8615 20.5688C22.1276 17.6242 24.0763 15.0116 24.1917 14.7518C24.3939 14.3188 24.3795 14.2322 24.1485 13.828C23.5277 12.7743 20.4966 11.1721 18.0427 10.6091C17.1335 10.3926 16.2385 10.1906 16.0653 10.1617C15.791 10.1039 15.7333 10.0029 15.7333 9.56989C15.7333 9.2379 15.6179 8.92034 15.4302 8.71826C15.1415 8.41514 15.1415 8.38627 15.3725 8.03986C15.5889 7.69343 15.5889 7.43362 15.358 4.15706C15.1415 1.03926 15.0837 0.60623 14.8239 0.317559L14.5353 0H7.95326C1.93418 0 1.34238 0.0288686 1.0537 0.259816ZM13.8568 1.47229C13.8568 1.57333 13.9579 2.75693 14.0734 4.11374C14.1889 5.45613 14.2899 6.68304 14.2899 6.81294C14.2899 7.0439 14.1167 7.07276 12.7021 7.07276H11.1143V5.4417C11.1143 3.06006 11.2731 3.17553 8.02543 3.17553C6.17784 3.17553 5.34065 3.23326 5.22518 3.34874C5.10971 3.46422 5.05197 4.11374 5.05197 5.29736V7.07276H3.31987H1.58777V6.6686C1.58777 6.45209 1.6888 5.21074 1.80428 3.89724C1.91975 2.58373 2.02078 1.47229 2.02078 1.40012C2.02078 1.34239 4.67668 1.29907 7.93881 1.29907C12.5722 1.29907 13.8568 1.34239 13.8568 1.47229ZM10.2483 5.485V7.07276H7.93881H5.62934V5.485V3.89724H7.93881H10.2483V5.485ZM14.2899 22.806V35.9412H7.86666H1.44343V22.806V9.67093H7.86666H14.2899V22.806Z" fill="#767676"/>
  <path d="M34.5415 0.317559C34.2963 0.60623 34.2095 1.11143 33.9354 4.15706C33.6322 7.44806 33.6178 7.679 33.8487 8.02543C34.0797 8.38627 34.0797 8.41514 33.791 8.71826C33.589 8.93477 33.4878 9.22346 33.4878 9.64206C33.4878 10.1906 33.4445 10.2483 33.1414 10.2483C32.6651 10.2483 30.0958 10.9123 29.1577 11.2876C27.2234 12.0381 24.9717 13.6259 24.9717 14.2178C24.9717 14.6796 25.5203 15.4446 29.403 20.4822L33.4878 25.765V31.2645V36.7639L33.8198 37.067C34.1518 37.3846 34.1663 37.3846 41.369 37.3846H48.6005L48.9037 37.0526L49.2211 36.7206V22.7772C49.2211 8.99252 49.2211 8.84817 48.9325 8.58836C48.6438 8.32854 48.6438 8.3141 48.9181 8.02543C49.1922 7.7223 49.1922 7.679 48.9181 4.11374C48.6438 0.736144 48.615 0.490759 48.3118 0.259816C48.0231 0.0288686 47.4314 0 41.4123 0H34.8302L34.5415 0.317559ZM47.5901 3.46422C47.6767 4.61894 47.7923 5.90359 47.8211 6.30776L47.9077 7.07276H46.2477H44.6022V5.29736C44.6022 4.11374 44.5445 3.46422 44.429 3.34874C44.3135 3.23326 43.4764 3.17553 41.6288 3.17553C39.4204 3.17553 38.9584 3.21883 38.7708 3.40647C38.5831 3.57969 38.5398 3.98384 38.5398 5.35509V7.07276H36.7932C35.0468 7.07276 35.0468 7.07276 35.119 6.74077C35.1623 6.56757 35.2777 5.26849 35.3788 3.85393L35.5664 1.29907L41.4844 1.32794L47.4168 1.37124L47.5901 3.46422ZM43.7361 5.485V7.07276H41.4267H39.1172V5.485V3.89724H41.4267H43.7361V5.485ZM47.9221 22.806V35.9412H41.4267H34.9312V22.806V9.67093H41.4267H47.9221V22.806Z" fill="#767676"/>
</svg>
  